<?xml version="1.0" encoding="utf-8"?>
<!-- Generator: Adobe Illustrator 19.0.0, SVG Export Plug-In . SVG Version: 6.00 Build 0)  -->
<svg version="1.1" id="Layer_1" xmlns="http://www.w3.org/2000/svg" xmlns:xlink="http://www.w3.org/1999/xlink" x="0px" y="0px"
	 viewBox="-247 358.9 100 125" style="enable-background:new -247 358.9 100 125;" xml:space="preserve">
<style type="text/css">
	.st0{fill:#FFFFFF;}
</style>
<g>
	<rect x="-227.9" y="382.2" class="st0" width="53.6" height="4.3"/>
	<rect x="-227.9" y="395.4" class="st0" width="46.6" height="4.3"/>
	<rect x="-227.9" y="408.6" class="st0" width="53.6" height="4.3"/>
	<rect x="-227.9" y="421.8" class="st0" width="34.6" height="4.3"/>
	<rect x="-227.9" y="435" class="st0" width="22.2" height="4.3"/>
	<path class="st0" d="M-163,434.8v-58.2c0-6-4.9-10.9-10.9-10.9h-55.3c-6,0-10.9,4.9-10.9,10.9v76.3c0,6,4.9,10.9,10.9,10.9h38.4
		c3.7,6,10.3,10.1,17.8,10.1c11.5,0,20.8-9.3,20.8-20.8C-152.1,445.2-156.5,438.4-163,434.8z M-192.3,460.7h-36.9
		c-4.3,0-7.8-3.5-7.8-7.8v-76.3c0-4.3,3.5-7.8,7.8-7.8h55.3c4.3,0,7.8,3.5,7.8,7.8v56.8c-2.1-0.8-4.4-1.2-6.8-1.2
		c-11.5,0-20.8,9.3-20.8,20.8C-193.7,455.8-193.2,458.3-192.3,460.7z M-172.9,470.8c-5.7,0-10.8-2.7-14-6.9c-0.8-1-1.4-2-1.9-3.1
		c-1.1-2.3-1.7-4.9-1.7-7.6c0-9.7,7.9-17.7,17.7-17.7c2.4,0,4.7,0.5,6.8,1.4c1.1,0.5,2.1,1,3.1,1.7c4.7,3.2,7.7,8.6,7.7,14.6
		C-155.2,462.8-163.2,470.8-172.9,470.8z"/>
	<path class="st0" d="M-173.7,447.9c0-3.2-2.3-5.2-5.2-5.2c-2.9,0-5.2,2-5.2,5.2c0,3.2,2.4,5.2,5.2,5.2
		C-176.1,453.1-173.7,451.1-173.7,447.9z M-180.5,447.9c0-1,0.3-2,1.5-2c1.2,0,1.5,1,1.5,2c0,1-0.3,2-1.5,2
		C-180.2,450-180.5,448.9-180.5,447.9z"/>
	<polygon class="st0" points="-167.6,441.9 -180.5,461.4 -177.3,463.5 -164.3,444 	"/>
	<path class="st0" d="M-166,452.4c-2.9,0-5.3,2-5.3,5.2c0,3.2,2.4,5.2,5.3,5.2c2.9,0,5.2-2,5.2-5.2
		C-160.7,454.4-163,452.4-166,452.4z M-166,459.6c-1.2,0-1.5-1-1.5-2c0-1,0.3-2,1.5-2s1.5,1,1.5,2
		C-164.4,458.6-164.7,459.6-166,459.6z"/>
</g>
</svg>
