<?xml version="1.0" encoding="utf-8"?>
<!-- Generator: Adobe Illustrator 19.0.0, SVG Export Plug-In . SVG Version: 6.00 Build 0)  -->
<svg version="1.1" id="Layer_1" xmlns="http://www.w3.org/2000/svg" xmlns:xlink="http://www.w3.org/1999/xlink" x="0px" y="0px"
	 viewBox="-257 380.9 80 80" style="enable-background:new -257 380.9 80 80;" xml:space="preserve">
<style type="text/css">
	.st0{fill:#FFFFFF;}
</style>
<path class="st0" d="M-214.3,420.3l-3.6-1.8c-6.8-3.3-8.7-4.5-8.7-9c0-5.9,5-7.9,9.8-7.9c4.6,0,9.6,2.1,9.6,7.9
	c0,0.9,0.8,1.7,1.7,1.7c0.9,0,1.7-0.7,1.7-1.7c0-6.2-4.5-10.5-11.3-11.1v-4.1c0-0.9-0.7-1.7-1.7-1.7c-0.9,0-1.7,0.7-1.7,1.7v4.1
	c-6.9,0.6-11.4,4.9-11.4,11.1c0,6.8,4,8.8,10.6,12l3.6,1.8c6.7,3.3,8.7,4.5,8.7,9c0,5.8-5,7.9-9.8,7.9s-9.8-2.1-9.8-7.9
	c0-0.9-0.7-1.7-1.7-1.7s-1.7,0.7-1.7,1.7c0,6.2,4.5,10.5,11.4,11.1v4.2c0,0.9,0.7,1.7,1.7,1.7s1.7-0.7,1.7-1.7v-4.2
	c6.9-0.6,11.4-4.9,11.4-11.1C-203.8,425.5-207.7,423.5-214.3,420.3L-214.3,420.3z"/>
<path class="st0" d="M-217,380.9c-22.1,0-40,17.9-40,40c0,22.1,17.9,40,40,40s40-17.9,40-40C-177,398.8-194.9,380.9-217,380.9z
	 M-217,457.6c-20.2,0-36.7-16.4-36.7-36.7c0-20.2,16.4-36.7,36.7-36.7c20.2,0,36.7,16.5,36.7,36.7
	C-180.3,441.1-196.8,457.6-217,457.6z"/>
</svg>
