<?xml version="1.0" encoding="utf-8"?>
<!-- Generator: Adobe Illustrator 19.0.0, SVG Export Plug-In . SVG Version: 6.00 Build 0)  -->
<svg version="1.1" id="Layer_1" xmlns="http://www.w3.org/2000/svg" xmlns:xlink="http://www.w3.org/1999/xlink" x="0px" y="0px"
	 viewBox="-244 215 485 481" style="enable-background:new -244 215 485 481;" xml:space="preserve">
<style type="text/css">
	.st0{fill:#725E3B;}
</style>
<g>
	<path class="st0" d="M-2.2,678.7c-35.1,0-69.9-8.3-101.9-24.8c-53.1-27.3-92.4-73.6-110.6-130.5c-18.3-56.8-13.4-117.4,13.9-170.5
		s73.6-92.4,130.5-110.6c56.8-18.2,117.4-13.3,170.5,14c3.4,1.8,4.8,6,3,9.4s-6,4.8-9.4,3C-8.9,216-135.5,256.6-188.3,359.3
		c-25.6,49.8-30.3,106.5-13.2,159.8s53.9,96.7,103.7,122.3c102.7,52.8,229.3,12.2,282.1-90.5c1.8-3.4,6-4.8,9.4-3s4.8,6,3,9.4
		c-27.3,53.1-73.6,92.4-130.5,110.6C43.8,675.2,20.8,678.7-2.2,678.7z"/>
	<path class="st0" d="M213,488.2c-0.3,0-0.6,0-0.9-0.1c-3.8-0.5-6.6-4-6.1-7.8c7.1-58.2-10.8-117.1-49-161.7
		c-2.5-2.9-2.2-7.4,0.8-9.9c2.9-2.5,7.4-2.2,9.9,0.8c40.7,47.5,59.7,110.4,52.2,172.5C219.5,485.6,216.5,488.2,213,488.2z"/>
	<g>
		<path class="st0" d="M-68.1,435.7c-12.5,0-24.2-4.9-33-13.7s-13.7-20.6-13.7-33s4.9-24.2,13.7-33s20.6-13.7,33-13.7
			c12.5,0,24.2,4.9,33,13.7c8.8,8.8,13.7,20.6,13.7,33s-4.9,24.2-13.7,33C-43.9,430.9-55.6,435.7-68.1,435.7z M-68.1,356.3
			c-8.7,0-17,3.4-23.1,9.6s-9.6,14.4-9.6,23.1s3.4,17,9.6,23.1s14.4,9.6,23.1,9.6c8.7,0,17-3.4,23.1-9.6s9.6-14.4,9.6-23.1
			s-3.4-17-9.6-23.1S-59.4,356.3-68.1,356.3z"/>
		<path class="st0" d="M64.1,568c-12.5,0-24.2-4.9-33-13.7s-13.7-20.6-13.7-33c0-12.5,4.9-24.2,13.7-33c8.8-8.8,20.6-13.7,33-13.7
			l0,0c12.5,0,24.2,4.9,33,13.7s13.7,20.6,13.7,33c0,12.5-4.9,24.2-13.7,33C88.4,563.1,76.6,568,64.1,568z M64.1,488.5
			c-8.7,0-17,3.4-23.1,9.6c-6.2,6.2-9.6,14.4-9.6,23.1s3.4,17,9.6,23.1c6.2,6.2,14.4,9.6,23.1,9.6s17-3.4,23.1-9.6
			c6.2-6.2,9.6-14.4,9.6-23.1s-3.4-17-9.6-23.1C81.1,491.9,72.9,488.5,64.1,488.5z"/>
	</g>
	<path class="st0" d="M-80,539.9c-1.8,0-3.6-0.7-4.9-2c-2.7-2.7-2.7-7.2,0-9.9l156-156c2.7-2.7,7.2-2.7,9.9,0c2.7,2.7,2.7,7.2,0,9.9
		l-156,156C-76.4,539.2-78.2,539.9-80,539.9z"/>
</g>
</svg>
